<?xml version="1.0" standalone="no"?>
<!DOCTYPE svg PUBLIC "-//W3C//DTD SVG 20010904//EN"
 "http://www.w3.org/TR/2001/REC-SVG-20010904/DTD/svg10.dtd">
<svg version="1.0" xmlns="http://www.w3.org/2000/svg"
 width="500.000000pt" height="436.000000pt" viewBox="0 0 500.000000 436.000000"
 preserveAspectRatio="xMidYMid meet">
<metadata>
Created by potrace 1.15, written by Peter Selinger 2001-2017
</metadata>
<g transform="translate(0.000000,436.000000) scale(0.100000,-0.100000)"
fill="#000000" stroke="none">
<path d="M0 3163 c0 -1006 2 -1195 14 -1183 7 8 60 71 117 140 158 191 329
390 335 390 2 0 -22 -33 -55 -72 -33 -40 -139 -169 -236 -286 l-175 -213 0
-970 0 -969 80 0 c91 0 90 -1 128 120 27 85 56 154 142 335 21 44 58 123 83
176 49 104 102 169 181 222 27 17 54 41 60 52 6 11 14 22 18 25 3 3 9 22 13
43 10 52 80 146 183 245 100 96 177 143 312 189 52 18 121 49 153 70 66 42 60
28 107 268 30 150 143 702 155 754 4 13 8 21 11 19 2 -3 -38 -221 -91 -486
-52 -265 -95 -486 -95 -491 0 -26 22 -7 43 37 31 66 105 103 219 110 46 3 81
9 83 16 2 6 13 128 25 271 12 143 24 262 26 264 15 16 15 -35 0 -221 -9 -117
-19 -236 -22 -265 l-6 -52 35 6 c20 3 47 3 60 -1 24 -6 86 -56 69 -56 -13 0
-94 -65 -95 -76 0 -5 -6 -14 -14 -19 -12 -9 -11 -15 9 -40 13 -16 48 -67 78
-112 51 -76 64 -88 160 -149 145 -91 294 -221 390 -338 29 -35 56 -57 75 -62
32 -7 132 -71 154 -98 8 -9 50 -45 95 -80 45 -35 99 -83 121 -107 60 -66 152
-208 164 -256 9 -33 18 -43 43 -52 38 -14 49 -14 26 0 -14 7 -16 19 -12 57 3
26 5 210 5 410 0 345 1 363 19 374 18 12 18 13 -5 52 -13 23 -35 75 -50 116
-33 95 -86 201 -96 194 -18 -11 -49 75 -49 133 0 84 10 93 49 44 21 -27 46
-45 72 -52 41 -13 108 -74 173 -160 28 -38 50 -53 110 -78 41 -17 80 -31 86
-31 14 0 148 -56 265 -110 50 -23 115 -52 147 -65 50 -20 107 -55 233 -142 62
-43 105 -92 195 -220 97 -140 272 -434 325 -550 8 -17 20 -35 25 -38 18 -11
39 -74 44 -131 2 -17 6 -36 10 -42 3 -6 0 -13 -6 -15 -7 -3 53 -6 135 -6 l147
-1 0 726 c0 717 0 726 -20 742 -18 15 -23 39 -35 167 -19 196 -19 216 0 209 8
-4 15 -12 15 -19 0 -7 6 -15 14 -18 8 -3 16 -16 19 -29 2 -13 5 563 6 1280 l1
1302 -2500 0 -2500 0 0 -1197z m4460 1018 c0 -11 8 -6 24 14 13 17 27 27 31
24 13 -13 37 -115 46 -192 5 -42 13 -85 18 -95 8 -15 -3 -30 -56 -85 -36 -37
-70 -67 -74 -67 -5 0 -11 10 -13 23 -4 19 -36 424 -36 451 0 5 14 -6 30 -24
17 -18 30 -41 30 -49z m128 -513 c22 -43 55 -220 45 -246 -9 -21 -44 -36 -53
-22 -4 7 -11 67 -15 134 -3 67 -8 133 -11 149 -8 40 8 33 34 -15z m-2109 -107
c19 -6 38 -8 44 -4 6 3 7 1 3 -5 -4 -8 0 -12 12 -12 10 0 27 -9 37 -20 10 -11
21 -18 25 -15 4 2 16 -3 26 -13 10 -9 28 -19 39 -20 11 -2 22 -7 25 -12 3 -4
20 -15 38 -24 17 -9 32 -23 32 -32 0 -8 7 -17 15 -20 8 -4 15 -14 15 -25 0
-10 6 -22 13 -26 7 -4 21 -19 30 -33 10 -14 20 -24 22 -22 3 1 5 -1 4 -4 0 -4
3 -10 8 -13 4 -3 17 -17 28 -31 l20 -24 -27 17 c-24 15 -28 15 -28 2 0 -8 7
-15 16 -15 14 0 14 -1 0 -16 -9 -8 -16 -22 -16 -30 0 -8 -3 -13 -7 -13 -19 4
-94 -15 -100 -25 -3 -6 -3 -8 2 -4 12 11 35 -11 29 -27 -5 -11 0 -12 23 -6 15
4 33 7 38 5 6 -2 29 -8 53 -14 23 -6 40 -15 37 -19 -7 -12 22 -34 35 -26 12 7
13 -5 2 -21 -4 -6 -15 -10 -24 -8 -10 1 -18 -2 -18 -8 0 -6 -14 -8 -36 -3 -32
6 -36 4 -30 -11 6 -15 1 -16 -46 -11 -29 4 -63 4 -75 1 -19 -5 -20 -9 -11 -34
9 -26 15 -29 74 -35 47 -6 67 -12 74 -25 6 -10 24 -22 42 -25 18 -4 39 -12 45
-17 7 -6 28 -8 46 -6 21 2 39 -2 47 -11 12 -12 10 -13 -13 -7 -26 6 -39 -8
-15 -16 7 -3 13 -16 13 -30 1 -14 9 -38 19 -53 19 -29 25 -47 35 -117 6 -37 4
-48 -6 -48 -7 0 -13 -9 -13 -19 0 -11 -4 -23 -10 -26 -5 -3 -10 -11 -10 -16 0
-6 5 -7 10 -4 9 6 14 -8 11 -28 -1 -5 3 -6 8 -3 14 9 18 -2 26 -68 5 -41 3
-56 -4 -52 -6 4 -11 -1 -12 -11 -3 -45 -4 -53 -11 -53 -35 0 -40 1 -35 14 4
10 0 12 -15 8 -13 -3 -18 -11 -15 -23 6 -24 -9 -25 -22 -1 -8 13 -9 9 -4 -17
5 -26 3 -33 -8 -29 -8 3 -13 15 -11 29 2 19 1 21 -7 9 -6 -8 -11 -12 -12 -7
-1 4 -3 12 -4 17 -1 6 -3 16 -4 23 -1 9 -3 9 -9 0 -5 -8 -12 -3 -19 17 -9 25
-9 30 4 30 12 0 12 2 -1 16 -9 8 -16 22 -16 30 0 8 -7 14 -15 14 -19 0 -19 -5
1 -25 10 -9 13 -22 9 -33 -6 -15 -8 -14 -16 7 -5 14 -11 32 -12 40 -2 9 -9 26
-15 39 -7 12 -9 22 -4 22 6 0 12 -10 16 -22 5 -21 6 -22 18 -5 12 17 14 17 29
-1 9 -10 15 -26 13 -36 -1 -10 0 -15 3 -12 4 3 13 0 22 -6 14 -11 14 -10 0 7
-9 11 -14 26 -12 33 3 6 0 12 -5 12 -6 0 -8 8 -5 18 3 14 -14 35 -62 77 -36
32 -74 59 -83 61 -33 4 -62 16 -62 25 0 5 -7 9 -16 9 -14 0 -15 2 -3 17 13 15
12 15 -16 1 -16 -8 -36 -13 -42 -11 -16 6 -45 -22 -35 -33 4 -5 -1 -2 -10 5
-13 10 -18 10 -18 2 0 -7 -4 -9 -10 -6 -5 3 -10 -3 -10 -15 0 -12 5 -18 10
-15 12 8 13 -1 1 -23 -8 -15 -2 -17 47 -17 67 -1 98 -7 142 -30 38 -20 32 -31
-16 -26 -25 2 -34 -1 -34 -13 0 -9 -12 -19 -26 -22 -17 -4 -22 -9 -14 -14 9
-6 9 -10 -1 -16 -10 -6 -4 -10 21 -14 27 -4 36 -10 38 -27 3 -23 41 -41 61
-29 5 4 15 23 21 44 7 20 17 42 22 47 6 6 6 3 2 -9 -5 -13 -4 -17 4 -12 6 3
14 -3 17 -15 5 -14 2 -25 -6 -30 -12 -8 -6 -13 12 -11 4 1 6 -7 6 -16 0 -35 4
-42 21 -42 10 0 19 -7 19 -15 0 -14 -10 -19 -29 -16 -5 0 -9 -4 -9 -9 -5 -36
-5 -56 0 -65 3 -5 7 -19 8 -30 2 -16 1 -17 -6 -5 -5 8 -7 19 -4 25 4 5 -3 2
-14 -7 -11 -10 -25 -18 -31 -18 -7 0 -12 -4 -12 -10 0 -5 6 -10 13 -10 8 0 7
-3 -3 -10 -9 -6 -18 -6 -24 0 -11 11 -36 -6 -36 -26 0 -7 8 -18 18 -24 15 -10
14 -10 -5 -5 -20 5 -21 3 -16 -37 3 -32 2 -39 -6 -28 -6 8 -8 35 -6 60 3 28 1
40 -4 31 -5 -7 -14 -10 -20 -7 -6 4 -9 12 -6 17 4 5 -1 9 -10 9 -9 0 -13 -4
-10 -10 3 -5 4 -10 0 -10 -3 0 -10 10 -15 23 -8 21 -9 21 -9 1 -1 -11 2 -24 6
-28 11 -11 13 -40 3 -46 -5 -3 -1 -11 10 -18 16 -10 18 -9 14 3 -4 8 -1 15 5
15 6 0 11 8 12 18 0 14 2 14 8 -3 5 -11 5 -22 2 -25 -4 -3 -12 -17 -19 -33 -6
-15 -17 -26 -24 -25 -8 2 -13 -6 -12 -19 0 -13 -5 -23 -13 -23 -9 0 -12 8 -9
25 6 31 0 32 -24 3 -19 -23 -19 -23 -34 -3 -10 12 -14 30 -10 47 3 15 1 35 -4
44 -8 15 -9 15 -15 0 -4 -10 -3 -15 3 -11 6 3 10 -3 10 -14 0 -26 -9 -27 -26
-3 -12 16 -13 15 -14 -5 0 -12 5 -25 10 -28 6 -3 10 -11 10 -17 0 -7 -5 -6
-15 2 -12 10 -16 9 -20 -4 -15 -49 -18 -52 -22 -33 -3 9 -9 17 -16 17 -6 0 -3
6 6 12 17 14 31 88 16 88 -5 0 -9 -15 -9 -34 0 -19 -5 -38 -11 -42 -8 -4 -9 0
-4 15 8 25 -1 42 -19 35 -8 -3 -12 -19 -11 -42 2 -20 1 -32 -2 -25 -6 15 -33
5 -33 -12 0 -8 -4 -17 -10 -20 -11 -7 -2 23 12 42 6 7 7 16 4 21 -3 5 2 18 12
28 9 11 24 28 32 39 14 17 13 18 -3 12 -13 -5 -17 -3 -14 5 2 7 11 12 18 10
11 -3 11 -1 3 8 -13 13 -44 -11 -58 -46 -8 -19 -8 -19 -15 1 -7 17 -8 17 -13
-7 -3 -16 -1 -25 4 -21 6 3 6 -2 0 -13 -5 -11 -7 -25 -5 -32 3 -7 -1 -10 -9
-7 -11 4 -13 19 -10 59 3 35 0 56 -8 61 -7 4 -13 -1 -17 -14 -5 -21 -33 -30
-33 -10 0 5 6 7 13 3 8 -5 8 -2 -2 9 -17 21 -30 21 -51 2 -15 -14 -17 -13 -17
2 0 10 7 26 15 36 15 17 14 18 -13 13 -29 -5 -29 -5 -10 11 19 15 19 15 -8 9
-27 -6 -27 -6 -13 16 18 28 5 61 -16 40 -18 -18 -27 -15 -25 8 1 12 7 18 14
16 8 -3 10 1 6 11 -4 9 -2 14 3 10 5 -3 14 6 21 19 8 18 8 24 0 24 -8 0 -8 3
1 8 10 7 10 15 2 36 -7 20 -7 25 1 20 8 -4 9 0 4 15 -4 12 -2 21 4 21 6 0 11
7 11 15 0 8 5 15 10 15 6 0 10 8 10 18 0 19 47 52 74 52 9 0 16 5 16 10 0 6 9
10 20 10 10 0 24 8 29 18 10 16 10 16 11 -1 0 -13 4 -16 16 -9 9 5 36 7 60 4
28 -2 44 0 44 7 0 6 -4 11 -9 11 -4 0 -8 10 -7 23 1 13 -5 22 -14 22 -8 0 -15
-9 -15 -19 0 -11 -5 -21 -11 -23 -6 -2 -8 10 -6 33 3 26 1 35 -7 30 -6 -4 -11
-13 -10 -19 1 -7 1 -21 0 -32 -1 -15 -3 -17 -10 -6 -7 11 -9 11 -14 0 -3 -8
-4 -4 -4 7 1 14 6 20 14 17 9 -3 11 0 7 10 -5 15 -44 12 -44 -3 0 -12 -59 -18
-63 -6 -2 5 -6 2 -10 -7 -3 -9 -1 -19 5 -23 7 -5 8 -2 3 6 -5 8 -4 11 3 6 6
-4 9 -13 5 -22 -5 -13 -8 -13 -23 1 -13 12 -20 13 -25 5 -4 -6 -13 -9 -20 -6
-8 3 -19 -2 -26 -10 -6 -8 -14 -12 -16 -10 -3 3 -19 -4 -35 -14 -26 -15 -31
-25 -32 -59 0 -23 2 -41 7 -41 4 0 7 8 7 18 1 13 4 12 14 -7 14 -26 5 -93 -16
-118 -6 -7 -7 -13 -3 -13 4 0 1 -8 -6 -17 -13 -17 -13 -17 7 0 35 29 38 19 5
-18 -17 -20 -31 -46 -32 -58 -1 -17 -3 -15 -11 10 -10 30 -12 32 -25 15 -14
-16 -14 -16 -9 1 4 11 2 16 -5 12 -6 -4 -13 2 -16 14 -3 12 -9 21 -13 21 -4 0
-11 12 -14 26 -5 19 -10 24 -18 16 -8 -8 -6 -16 7 -28 9 -9 15 -27 13 -39 -3
-11 2 -27 9 -34 14 -12 15 -84 2 -75 -4 2 -5 12 -2 23 3 11 -2 21 -13 25 -15
6 -15 4 -3 -11 8 -10 -2 -4 -21 12 -76 66 -87 80 -84 103 2 12 0 22 -5 22 -9
0 -23 47 -27 93 -2 26 25 55 39 41 3 -3 10 -3 16 1 7 4 4 14 -9 27 -11 12 -20
30 -20 39 0 10 -5 19 -11 21 -6 2 -15 25 -20 52 -9 49 -4 91 14 114 7 9 6 11
-8 6 -14 -6 -16 -3 -10 15 4 14 2 23 -9 27 -15 6 -16 40 -1 75 8 21 55 31 61
15 8 -22 101 3 113 31 8 18 19 23 45 23 19 0 38 5 41 10 4 6 12 10 18 9 22 -3
40 1 34 7 -3 3 -2 17 3 30 11 28 6 29 -71 13 -38 -8 -53 -8 -59 0 -3 7 -14 9
-23 6 -8 -4 -25 -1 -37 5 -18 10 -22 8 -31 -19 -6 -17 -17 -31 -25 -31 -19 0
-18 35 1 54 8 8 15 19 15 25 0 6 5 11 10 11 6 0 10 9 10 21 0 12 8 23 20 26
11 3 17 10 13 16 -3 5 -2 7 4 4 5 -3 20 0 34 6 27 14 72 20 65 8 -3 -4 19 -7
49 -7 41 0 55 3 58 16 3 10 -3 16 -15 17 -14 1 -18 -3 -14 -14 5 -11 2 -14
-10 -9 -8 3 -21 6 -27 6 -7 0 -6 4 3 10 11 7 11 10 2 10 -7 0 -11 4 -8 8 2 4
-14 8 -37 9 -79 1 -88 3 -81 15 7 11 -10 9 -47 -6 -17 -7 -18 1 -4 68 8 38 35
76 55 76 6 0 8 10 4 24 -4 16 -1 25 10 29 9 4 13 13 10 22 -4 8 -1 15 6 15 9
0 9 4 -1 17 -12 14 -12 16 1 11 11 -4 16 0 16 13 0 11 -6 19 -12 19 -7 0 -10
8 -7 21 3 11 11 18 19 15 8 -3 11 0 8 8 -8 21 57 84 94 90 25 3 32 1 33 -12 0
-12 3 -10 9 6 11 25 35 29 44 7 5 -13 9 -12 26 5 23 23 70 23 139 1z m-889
-241 l0 -60 -90 0 c-87 0 -90 1 -90 23 0 12 -3 39 -6 60 l-7 37 97 0 96 0 0
-60z m-224 35 c-3 -9 -24 -42 -46 -75 -45 -66 -49 -80 -20 -80 28 0 31 -24 28
-185 l-3 -140 -115 -3 c-63 -1 -121 2 -128 7 -11 7 -9 18 11 57 13 27 30 63
38 81 21 46 223 352 233 353 4 0 6 -7 2 -15z m3422 -65 c23 -30 43 -130 57
-295 7 -80 7 -81 -18 -92 -20 -9 -28 -9 -35 0 -10 12 -42 305 -42 381 0 43 8
44 38 6z m-3196 -167 l2 -78 3 78 c4 75 4 77 30 77 23 0 25 -3 19 -30 -3 -17
-16 -59 -29 -93 -13 -34 -29 -82 -35 -107 -22 -94 -27 -100 -75 -100 l-43 0
-18 143 c-10 78 -20 152 -23 165 -5 21 -3 22 81 22 l86 0 2 -77z m2977 -527
c18 -19 25 -47 39 -145 15 -116 31 -158 33 -88 2 93 18 160 20 86 5 -127 19
-199 39 -199 35 0 43 87 11 117 -39 38 -26 126 14 93 8 -7 15 -9 15 -4 0 4 5
3 12 -4 29 -29 39 -14 37 58 -2 75 9 100 42 97 28 -2 42 -33 36 -78 -3 -22 0
-45 8 -56 31 -45 42 -258 16 -320 l-13 -33 -19 24 c-24 30 -52 30 -66 -1 -6
-13 -7 -20 -2 -17 6 3 8 -6 6 -22 -3 -27 -26 -47 -28 -25 -1 6 -2 16 -3 22 0
7 -16 13 -33 15 -30 4 -33 2 -33 -25 0 -20 6 -30 20 -34 11 -3 20 -13 20 -22
0 -9 -6 -15 -12 -12 -7 2 -11 11 -10 18 2 8 0 10 -5 6 -4 -5 -8 -14 -8 -20 0
-7 -12 -13 -27 -15 -16 -2 -28 -8 -28 -13 0 -16 -49 -10 -59 9 -5 9 -19 132
-30 272 -12 140 -24 274 -27 298 -7 48 2 53 35 18z m-2756 -124 c1 -33 5 -58
8 -56 9 5 22 -84 14 -96 -3 -6 1 -17 10 -26 20 -21 15 -38 -13 -42 -31 -5 -63
50 -52 89 6 20 4 41 -7 66 -15 38 -13 75 7 128 10 26 13 28 21 13 5 -9 10 -44
12 -76z m389 -757 c75 -45 178 -80 189 -64 3 5 32 9 65 8 41 -1 71 4 95 17 61
33 147 35 158 3 2 -8 13 -20 23 -27 10 -7 16 -18 13 -23 -4 -5 -8 -19 -10 -30
-4 -19 -1 -21 30 -16 19 3 35 2 35 -4 0 -5 8 -9 18 -10 10 0 12 -3 5 -6 -9 -3
-10 -10 -3 -22 5 -10 8 -31 7 -46 -2 -22 3 -28 20 -31 18 -3 28 5 45 36 29 51
52 49 56 -4 4 -45 -14 -85 -37 -87 -14 -1 -14 -2 0 -6 13 -3 15 -23 12 -136
-2 -73 -5 -151 -7 -174 -2 -24 1 -43 6 -43 5 0 6 5 3 10 -3 6 3 10 15 10 11 0
23 6 25 13 4 11 13 82 14 115 2 29 36 -8 51 -57 22 -64 10 -91 -45 -107 -128
-39 -363 5 -618 115 -138 59 -267 160 -357 276 -46 60 -46 94 0 50 l28 -27 7
61 c4 39 13 64 23 70 9 5 13 15 9 25 -4 9 -2 16 4 16 6 0 7 4 4 10 -3 5 6 22
22 37 15 16 26 29 25 31 -1 1 -9 16 -17 32 -22 43 -4 40 87 -15z m2588 -463
c0 -6 6 -12 14 -15 15 -6 25 -45 32 -132 3 -33 7 -78 9 -100 19 -193 26 -387
16 -399 -9 -11 -9 -15 1 -19 8 -3 8 -6 2 -6 -29 -2 -33 20 -61 324 -2 28 -9
93 -14 145 -5 52 -11 120 -13 150 -2 30 -7 64 -11 75 -8 19 -8 19 8 3 9 -9 17
-21 17 -26z"/>
<path d="M3290 1368 c0 -24 16 -53 62 -110 42 -52 156 -254 198 -349 66 -149
127 -264 222 -416 93 -151 132 -223 212 -396 39 -85 48 -97 70 -97 31 0 34 -8
-67 195 -41 83 -110 204 -154 270 -94 140 -193 316 -223 398 -12 31 -26 57
-31 57 -6 0 -7 5 -4 10 13 21 -167 329 -230 396 -19 20 -35 40 -35 45 0 4 -4
11 -10 14 -6 3 -10 -4 -10 -17z"/>
<path d="M1883 888 c2 -7 14 -13 26 -12 23 1 29 -11 9 -19 -10 -4 -10 -6 -1
-6 7 -1 10 -8 7 -16 -4 -8 1 -17 10 -21 9 -3 13 -10 10 -15 -3 -5 2 -12 10
-15 9 -3 13 -10 10 -16 -3 -5 3 -12 14 -15 11 -3 19 -10 16 -17 -4 -11 3 -22
45 -72 5 -7 7 -15 4 -18 -4 -3 -2 -6 4 -6 6 0 19 -20 30 -45 10 -25 21 -45 25
-45 4 0 5 -6 2 -14 -3 -8 5 -25 18 -38 12 -12 21 -29 20 -36 -2 -8 1 -11 6 -8
6 3 8 -2 6 -11 -5 -21 39 -76 52 -65 4 4 2 -1 -5 -10 -11 -15 -10 -20 3 -33 9
-9 16 -25 16 -36 0 -11 4 -17 10 -14 6 3 7 -1 4 -9 -3 -9 -2 -16 3 -16 5 0 9
-8 10 -17 1 -10 13 -53 27 -95 14 -43 28 -93 31 -111 6 -28 11 -34 31 -34 23
0 24 2 18 36 -3 20 -15 43 -25 53 -13 11 -15 18 -7 20 15 5 -53 194 -69 191
-6 -1 -10 10 -10 24 0 15 -6 29 -12 31 -6 2 -9 8 -5 13 7 12 -41 91 -50 82 -4
-4 -4 0 0 10 3 10 1 17 -6 17 -6 0 -9 4 -5 9 3 5 1 12 -5 16 -5 3 -10 0 -10
-7 0 -9 -3 -9 -10 2 -12 19 -13 33 0 25 5 -3 5 7 -1 25 -6 16 -15 27 -21 24
-5 -3 -8 0 -7 7 4 21 -34 91 -41 78 -4 -6 -9 -2 -13 10 -3 13 -1 19 5 15 6 -4
2 5 -7 20 -20 30 -27 33 -19 9 5 -17 5 -17 -6 0 -6 9 -9 21 -6 26 3 5 -3 20
-14 32 -18 21 -19 22 -14 4 5 -18 4 -18 -6 -2 -6 9 -8 22 -5 27 3 6 2 10 -3
10 -5 0 -12 9 -15 21 -3 12 -10 18 -17 14 -7 -4 -10 -1 -9 6 1 8 -1 22 -6 32
-6 15 -10 16 -16 5 -7 -10 -9 -10 -9 0 0 6 -7 12 -16 12 -9 0 -14 -6 -11 -12z"/>
</g>
</svg>
